<?xml version="1.0" encoding="UTF-8" standalone="no"?>
<!DOCTYPE svg PUBLIC "-//W3C//DTD SVG 1.1//EN"
 "http://www.w3.org/Graphics/SVG/1.1/DTD/svg11.dtd">
<!-- Generated by graphviz version 2.38.0 (20140413.2041)
 -->
<!-- Title: G Pages: 1 -->
<svg width="1618pt" height="802pt"
 viewBox="0.00 0.00 1618.48 801.69" xmlns="http://www.w3.org/2000/svg" xmlns:xlink="http://www.w3.org/1999/xlink">
<g id="graph0" class="graph" transform="scale(1 1) rotate(0) translate(4 797.694)">
<title>G</title>
<polygon fill="white" stroke="none" points="-4,4 -4,-797.694 1614.48,-797.694 1614.48,4 -4,4"/>
<!-- header -->
<g id="node1" class="node"><title>header</title>
<ellipse fill="#e6e6ff" stroke="black" cx="1325.72" cy="-308.824" rx="34.394" ry="18"/>
<text text-anchor="middle" x="1325.72" y="-305.124" font-family="Times,serif" font-size="14.00">header</text>
</g>
<!-- Param -->
<g id="node6" class="node"><title>Param</title>
<ellipse fill="#e6e6ff" stroke="black" cx="1559.78" cy="-240.824" rx="50.8918" ry="18"/>
<text text-anchor="middle" x="1559.78" y="-237.124" font-family="Times,serif" font-size="14.00">Param A B</text>
</g>
<!-- header&#45;&gt;Param -->
<g id="edge1" class="edge"><title>header&#45;&gt;Param</title>
<path fill="none" stroke="black" d="M1369.57,-303.826C1398.91,-299.691 1438.44,-292.702 1472.09,-281.824 1492.68,-275.165 1514.72,-264.696 1531.42,-256.004"/>
<polygon fill="black" stroke="black" points="1369.09,-300.36 1359.65,-305.172 1370.03,-307.297 1369.09,-300.36"/>
</g>
<!-- render -->
<g id="node2" class="node"><title>render</title>
<ellipse fill="#e6e6ff" stroke="black" cx="1089.93" cy="-110.824" rx="71.3357" ry="26.7407"/>
<text text-anchor="middle" x="1089.93" y="-114.624" font-family="Times,serif" font-size="14.00">RenderValue A</text>
<text text-anchor="middle" x="1089.93" y="-99.6235" font-family="Times,serif" font-size="14.00">A =&gt; TagMod</text>
</g>
<!-- render&#45;&gt;Param -->
<g id="edge2" class="edge"><title>render&#45;&gt;Param</title>
<path fill="none" stroke="black" d="M1166.39,-99.5773C1246.75,-91.247 1375.43,-88.6094 1472.09,-137.824 1508.96,-156.594 1536.29,-198.647 1549.64,-222.814"/>
<polygon fill="black" stroke="black" points="1165.91,-96.1087 1156.35,-100.674 1166.67,-103.067 1165.91,-96.1087"/>
</g>
<!-- initValues -->
<g id="node3" class="node"><title>initValues</title>
<ellipse fill="#e6e6ff" stroke="black" cx="1325.72" cy="-766.824" rx="60.623" ry="26.7407"/>
<text text-anchor="middle" x="1325.72" y="-770.624" font-family="Times,serif" font-size="14.00">initValues A</text>
<text text-anchor="middle" x="1325.72" y="-755.624" font-family="Times,serif" font-size="14.00">Vector A</text>
</g>
<!-- initValues&#45;&gt;Param -->
<g id="edge3" class="edge"><title>initValues&#45;&gt;Param</title>
<path fill="none" stroke="black" d="M1396.94,-765.231C1423.95,-760.984 1452.88,-751.374 1472.09,-730.824 1538.08,-660.21 1554.94,-338.713 1558.14,-258.831"/>
<polygon fill="black" stroke="black" points="1396.15,-761.806 1386.71,-766.608 1397.08,-768.743 1396.15,-761.806"/>
</g>
<!-- editor -->
<g id="node4" class="node"><title>editor</title>
<ellipse fill="#e6e6ff" stroke="black" cx="1325.72" cy="-173.824" rx="138.686" ry="26.7407"/>
<text text-anchor="middle" x="1325.72" y="-177.624" font-family="Times,serif" font-size="14.00">Editor B</text>
<text text-anchor="middle" x="1325.72" y="-162.624" font-family="Times,serif" font-size="14.00">ExternalVar B =&gt; ReactElement</text>
</g>
<!-- editor&#45;&gt;Param -->
<g id="edge4" class="edge"><title>editor&#45;&gt;Param</title>
<path fill="none" stroke="black" d="M1425.26,-196.8C1440.99,-200.879 1457.04,-205.283 1472.09,-209.824 1489.53,-215.088 1508.63,-221.811 1524.46,-227.65"/>
<polygon fill="black" stroke="black" points="1426.07,-193.395 1415.51,-194.305 1424.33,-200.176 1426.07,-193.395"/>
</g>
<!-- prism -->
<g id="node5" class="node"><title>prism</title>
<ellipse fill="#e6e6ff" stroke="black" cx="1325.72" cy="-525.824" rx="81.4863" ry="18"/>
<text text-anchor="middle" x="1325.72" y="-522.124" font-family="Times,serif" font-size="14.00">Prism B (Vector A)</text>
</g>
<!-- prism&#45;&gt;Param -->
<g id="edge5" class="edge"><title>prism&#45;&gt;Param</title>
<path fill="none" stroke="black" d="M1416.8,-523.412C1436.85,-519.055 1456.7,-511.263 1472.09,-497.824 1545.15,-434.018 1556.77,-306.486 1558.52,-259.103"/>
<polygon fill="black" stroke="black" points="1416.12,-519.978 1406.95,-525.285 1417.43,-526.854 1416.12,-519.978"/>
</g>
<!-- genEditor -->
<g id="node7" class="node"><title>genEditor</title>
<ellipse fill="none" stroke="black" cx="1325.72" cy="-245.824" rx="146.242" ry="26.7407"/>
<text text-anchor="middle" x="1325.72" y="-249.624" font-family="Times,serif" font-size="14.00">GenEditor</text>
<text text-anchor="middle" x="1325.72" y="-234.624" font-family="Times,serif" font-size="14.00">ExternalVar GenState =&gt; TagMod</text>
</g>
<!-- gs -->
<g id="node8" class="node"><title>gs</title>
<ellipse fill="#33cc33" stroke="black" cx="1325.72" cy="-685.824" rx="42.7926" ry="18"/>
<text text-anchor="middle" x="1325.72" y="-682.124" font-family="Times,serif" font-size="14.00">GenState</text>
</g>
<!-- gs&#45;&gt;gs -->
<g id="edge6" class="edge"><title>gs&#45;&gt;gs</title>
<path fill="none" stroke="black" d="M1298.6,-700.24C1289.13,-710.99 1298.17,-721.824 1325.72,-721.824 1344.66,-721.824 1354.85,-716.703 1356.29,-710.009"/>
<polygon fill="black" stroke="black" points="1359.47,-708.501 1352.83,-700.24 1352.87,-710.835 1359.47,-708.501"/>
</g>
<!-- GOAL_Params -->
<g id="node9" class="node"><title>GOAL_Params</title>
<ellipse fill="#33cc33" stroke="black" cx="115.966" cy="-253.824" rx="115.931" ry="48.5816"/>
<text text-anchor="middle" x="115.966" y="-273.124" font-family="Times,serif" font-size="14.00">Params P</text>
<text text-anchor="middle" x="115.966" y="-242.124" font-family="Times,serif" font-size="14.00">Iso P (A₁,…,Aₙ) *</text>
<text text-anchor="middle" x="115.966" y="-227.124" font-family="Times,serif" font-size="14.00">[ Param Aₙ Bₙ * nKey Bₙ ]</text>
</g>
<!-- initStateNeeds -->
<g id="node11" class="node"><title>initStateNeeds</title>
<ellipse fill="#33cc33" stroke="black" cx="427.34" cy="-651.824" rx="100.318" ry="37.4533"/>
<text text-anchor="middle" x="427.34" y="-663.124" font-family="Times,serif" font-size="14.00">[ Key Bₙ *</text>
<text text-anchor="middle" x="427.34" y="-648.124" font-family="Times,serif" font-size="14.00">initValues Aₙ *</text>
<text text-anchor="middle" x="427.34" y="-633.124" font-family="Times,serif" font-size="14.00">Prism Bₙ (Vector Aₙ) ]</text>
</g>
<!-- GOAL_Params&#45;&gt;initStateNeeds -->
<g id="edge7" class="edge"><title>GOAL_Params&#45;&gt;initStateNeeds</title>
<path fill="none" stroke="red" d="M153.06,-300.258C213.269,-377.715 333.384,-532.238 392.24,-607.954"/>
<polygon fill="red" stroke="red" points="389.523,-610.162 398.424,-615.91 395.05,-605.866 389.523,-610.162"/>
<text text-anchor="middle" x="279.431" y="-504.624" font-family="Times,serif" font-size="14.00" fill="red">initialState</text>
</g>
<!-- editorNeeds -->
<g id="node12" class="node"><title>editorNeeds</title>
<ellipse fill="#33cc33" stroke="black" cx="427.34" cy="-253.824" rx="55.7232" ry="37.4533"/>
<text text-anchor="middle" x="427.34" y="-265.124" font-family="Times,serif" font-size="14.00">[ Headerₙ *</text>
<text text-anchor="middle" x="427.34" y="-250.124" font-family="Times,serif" font-size="14.00">Key Bₙ *</text>
<text text-anchor="middle" x="427.34" y="-235.124" font-family="Times,serif" font-size="14.00">Editor Bₙ ]</text>
</g>
<!-- GOAL_Params&#45;&gt;editorNeeds -->
<g id="edge9" class="edge"><title>GOAL_Params&#45;&gt;editorNeeds</title>
<path fill="none" stroke="red" d="M232.165,-253.824C275.663,-253.824 323.626,-253.824 360.999,-253.824"/>
<polygon fill="red" stroke="red" points="361.248,-257.324 371.248,-253.824 361.247,-250.324 361.248,-257.324"/>
<text text-anchor="middle" x="279.431" y="-257.624" font-family="Times,serif" font-size="14.00" fill="red">editor</text>
</g>
<!-- parseNeeds -->
<g id="node13" class="node"><title>parseNeeds</title>
<ellipse fill="#33cc33" stroke="black" cx="427.34" cy="-357.824" rx="100.318" ry="48.1667"/>
<text text-anchor="middle" x="427.34" y="-376.624" font-family="Times,serif" font-size="14.00">(A₁,…,Aₙ) =&gt; P *</text>
<text text-anchor="middle" x="427.34" y="-361.624" font-family="Times,serif" font-size="14.00">[ Headerₙ *</text>
<text text-anchor="middle" x="427.34" y="-346.624" font-family="Times,serif" font-size="14.00">Key Bₙ *</text>
<text text-anchor="middle" x="427.34" y="-331.624" font-family="Times,serif" font-size="14.00">Prism Bₙ (Vector Aₙ) ]</text>
</g>
<!-- GOAL_Params&#45;&gt;parseNeeds -->
<g id="edge11" class="edge"><title>GOAL_Params&#45;&gt;parseNeeds</title>
<path fill="none" stroke="red" d="M207.281,-284.184C247.487,-297.7 294.754,-313.589 335.07,-327.142"/>
<polygon fill="red" stroke="red" points="334.031,-330.485 344.625,-330.354 336.261,-323.85 334.031,-330.485"/>
<text text-anchor="middle" x="279.431" y="-322.624" font-family="Times,serif" font-size="14.00" fill="red">parse</text>
</g>
<!-- renderNeeds -->
<g id="node16" class="node"><title>renderNeeds</title>
<ellipse fill="#33cc33" stroke="black" cx="427.34" cy="-151.824" rx="86.0347" ry="26.7407"/>
<text text-anchor="middle" x="427.34" y="-155.624" font-family="Times,serif" font-size="14.00">P =&gt; (A₁,…,Aₙ) *</text>
<text text-anchor="middle" x="427.34" y="-140.624" font-family="Times,serif" font-size="14.00">[ RenderValue Aₙ ]</text>
</g>
<!-- GOAL_Params&#45;&gt;renderNeeds -->
<g id="edge13" class="edge"><title>GOAL_Params&#45;&gt;renderNeeds</title>
<path fill="none" stroke="red" d="M207.698,-223.909C255.602,-208.115 313.439,-189.047 357.592,-174.49"/>
<polygon fill="red" stroke="red" points="358.963,-177.723 367.365,-171.268 356.772,-171.075 358.963,-177.723"/>
<text text-anchor="middle" x="279.431" y="-213.624" font-family="Times,serif" font-size="14.00" fill="red">render</text>
</g>
<!-- tup_PK -->
<g id="node17" class="node"><title>tup_PK</title>
<ellipse fill="none" stroke="black" cx="628.942" cy="-69.8235" rx="83.3857" ry="18"/>
<text text-anchor="middle" x="628.942" y="-66.1235" font-family="Times,serif" font-size="14.00">Param A B * Key B</text>
</g>
<!-- GOAL_Params&#45;&gt;tup_PK -->
<g id="edge16" class="edge"><title>GOAL_Params&#45;&gt;tup_PK</title>
<path fill="none" stroke="black" d="M169.116,-210.293C209.596,-178.902 268.493,-138.258 326.931,-115.824 394.369,-89.934 475.574,-78.5766 536.636,-73.614"/>
<polygon fill="black" stroke="black" points="536.939,-77.1011 546.641,-72.8433 536.402,-70.1218 536.939,-77.1011"/>
</g>
<!-- GOAL_editors -->
<g id="node10" class="node"><title>GOAL_editors</title>
<ellipse fill="#33cc33" stroke="black" cx="865.323" cy="-259.824" rx="98.5829" ry="18"/>
<text text-anchor="middle" x="865.323" y="-256.124" font-family="Times,serif" font-size="14.00">[ Headerₙ * GenEditorₙ ]</text>
</g>
<!-- GOAL_editors&#45;&gt;header -->
<g id="edge40" class="edge"><title>GOAL_editors&#45;&gt;header</title>
<path fill="none" stroke="black" d="M950.933,-268.868C1048.9,-279.34 1206.43,-296.179 1281.82,-304.238"/>
<polygon fill="black" stroke="black" points="1281.58,-307.732 1291.89,-305.315 1282.32,-300.772 1281.58,-307.732"/>
</g>
<!-- GOAL_editors&#45;&gt;genEditor -->
<g id="edge41" class="edge"><title>GOAL_editors&#45;&gt;genEditor</title>
<path fill="none" stroke="black" d="M962.976,-256.872C1023.31,-255.029 1102.32,-252.616 1171.1,-250.515"/>
<polygon fill="black" stroke="black" points="1171.28,-254.011 1181.17,-250.208 1171.07,-247.015 1171.28,-254.011"/>
</g>
<!-- initStateNeeds&#45;&gt;initValues -->
<g id="edge35" class="edge"><title>initStateNeeds&#45;&gt;initValues</title>
<path fill="none" stroke="black" d="M469.934,-685.846C491.472,-702.038 518.842,-720.506 545.749,-732.824 622.746,-768.07 646.14,-770.07 730.135,-780.824 919.832,-805.11 1146.28,-786.925 1256.99,-775.013"/>
<polygon fill="black" stroke="black" points="1257.46,-778.483 1267.02,-773.917 1256.7,-771.524 1257.46,-778.483"/>
</g>
<!-- initStateNeeds&#45;&gt;prism -->
<g id="edge34" class="edge"><title>initStateNeeds&#45;&gt;prism</title>
<path fill="none" stroke="black" d="M495.29,-624.024C555.558,-600.418 647.148,-568.025 730.135,-552.824 906.989,-520.426 1118.11,-519.595 1235.22,-522.387"/>
<polygon fill="black" stroke="black" points="1235.48,-525.895 1245.56,-522.649 1235.65,-518.897 1235.48,-525.895"/>
</g>
<!-- initStateNeeds&#45;&gt;gs -->
<g id="edge8" class="edge"><title>initStateNeeds&#45;&gt;gs</title>
<path fill="none" stroke="red" d="M496.158,-679.187C556.421,-701.763 647.513,-731.673 730.135,-741.824 920.362,-765.194 973.428,-775.501 1161.35,-737.824 1169.76,-736.136 1171.24,-733.65 1179.35,-730.824 1212.82,-719.151 1251.14,-707.352 1280.03,-698.766"/>
<polygon fill="red" stroke="red" points="1281.24,-702.059 1289.83,-695.868 1279.25,-695.346 1281.24,-702.059"/>
<text text-anchor="middle" x="865.323" y="-765.624" font-family="Times,serif" font-size="14.00" fill="red">fold</text>
</g>
<!-- key -->
<g id="node20" class="node"><title>key</title>
<ellipse fill="none" stroke="black" cx="1325.72" cy="-461.824" rx="77.1494" ry="26.7407"/>
<text text-anchor="middle" x="1325.72" y="-465.624" font-family="Times,serif" font-size="14.00">Key B</text>
<text text-anchor="middle" x="1325.72" y="-450.624" font-family="Times,serif" font-size="14.00">Lens GenState B</text>
</g>
<!-- initStateNeeds&#45;&gt;key -->
<g id="edge33" class="edge"><title>initStateNeeds&#45;&gt;key</title>
<path fill="none" stroke="black" d="M460.857,-616.086C482.716,-594.335 513.367,-567.918 545.749,-552.824 667.262,-496.183 1062.77,-472.835 1238.84,-465.076"/>
<polygon fill="black" stroke="black" points="1239,-468.572 1248.84,-464.642 1238.7,-461.579 1239,-468.572"/>
</g>
<!-- tup_initValuesPrism -->
<g id="node21" class="node"><title>tup_initValuesPrism</title>
<ellipse fill="none" stroke="black" cx="865.323" cy="-714.824" rx="135.376" ry="18"/>
<text text-anchor="middle" x="865.323" y="-711.124" font-family="Times,serif" font-size="14.00">initValues A * Prism B (Vector A)</text>
</g>
<!-- initStateNeeds&#45;&gt;tup_initValuesPrism -->
<g id="edge37" class="edge"><title>initStateNeeds&#45;&gt;tup_initValuesPrism</title>
<path fill="none" stroke="black" d="M521.335,-665.261C592.273,-675.512 689.885,-689.617 762.841,-700.159"/>
<polygon fill="black" stroke="black" points="762.569,-703.656 772.967,-701.622 763.57,-696.728 762.569,-703.656"/>
</g>
<!-- tup_keyGSB -->
<g id="node24" class="node"><title>tup_keyGSB</title>
<ellipse fill="none" stroke="black" cx="865.323" cy="-651.824" rx="90.1842" ry="18"/>
<text text-anchor="middle" x="865.323" y="-648.124" font-family="Times,serif" font-size="14.00">Key B * GenState * B</text>
</g>
<!-- initStateNeeds&#45;&gt;tup_keyGSB -->
<g id="edge36" class="edge"><title>initStateNeeds&#45;&gt;tup_keyGSB</title>
<path fill="none" stroke="black" d="M527.817,-651.824C598.721,-651.824 693.658,-651.824 764.614,-651.824"/>
<polygon fill="black" stroke="black" points="764.903,-655.324 774.903,-651.824 764.903,-648.324 764.903,-655.324"/>
</g>
<!-- editorNeeds&#45;&gt;header -->
<g id="edge38" class="edge"><title>editorNeeds&#45;&gt;header</title>
<path fill="none" stroke="black" d="M482.029,-262.257C502.003,-265.22 524.881,-268.409 545.749,-270.824 824.497,-303.071 1162.44,-308.011 1281.05,-308.723"/>
<polygon fill="black" stroke="black" points="1281.16,-312.223 1291.18,-308.776 1281.2,-305.223 1281.16,-312.223"/>
</g>
<!-- editorNeeds&#45;&gt;GOAL_editors -->
<g id="edge10" class="edge"><title>editorNeeds&#45;&gt;GOAL_editors</title>
<path fill="none" stroke="red" d="M483.558,-254.583C551.884,-255.524 669.778,-257.146 756.326,-258.337"/>
<polygon fill="red" stroke="red" points="756.407,-261.839 766.454,-258.477 756.503,-254.839 756.407,-261.839"/>
</g>
<!-- tup_keyEd -->
<g id="node25" class="node"><title>tup_keyEd</title>
<ellipse fill="none" stroke="black" cx="865.323" cy="-205.824" rx="73.387" ry="18"/>
<text text-anchor="middle" x="865.323" y="-202.124" font-family="Times,serif" font-size="14.00">Key B * Editor B</text>
</g>
<!-- editorNeeds&#45;&gt;tup_keyEd -->
<g id="edge39" class="edge"><title>editorNeeds&#45;&gt;tup_keyEd</title>
<path fill="none" stroke="black" d="M482.676,-247.841C559.527,-239.38 700.327,-223.879 787.747,-214.254"/>
<polygon fill="black" stroke="black" points="788.316,-217.713 797.873,-213.139 787.55,-210.755 788.316,-217.713"/>
</g>
<!-- GOAL_parse -->
<g id="node14" class="node"><title>GOAL_parse</title>
<ellipse fill="#33cc33" stroke="black" cx="865.323" cy="-351.824" rx="122.379" ry="18"/>
<text text-anchor="middle" x="865.323" y="-348.124" font-family="Times,serif" font-size="14.00">GenState =&gt; Header | Vector P</text>
</g>
<!-- parseNeeds&#45;&gt;GOAL_parse -->
<g id="edge12" class="edge"><title>parseNeeds&#45;&gt;GOAL_parse</title>
<path fill="none" stroke="red" d="M527.817,-356.455C588.774,-355.616 667.495,-354.532 733.47,-353.624"/>
<polygon fill="red" stroke="red" points="733.574,-357.123 743.525,-353.486 733.478,-350.124 733.574,-357.123"/>
</g>
<!-- tup_HKP -->
<g id="node18" class="node"><title>tup_HKP</title>
<ellipse fill="none" stroke="black" cx="865.323" cy="-424.824" rx="88.2768" ry="37.4533"/>
<text text-anchor="middle" x="865.323" y="-436.124" font-family="Times,serif" font-size="14.00">Header *</text>
<text text-anchor="middle" x="865.323" y="-421.124" font-family="Times,serif" font-size="14.00">Key B *</text>
<text text-anchor="middle" x="865.323" y="-406.124" font-family="Times,serif" font-size="14.00">Prism B (Vector A)</text>
</g>
<!-- parseNeeds&#45;&gt;tup_HKP -->
<g id="edge17" class="edge"><title>parseNeeds&#45;&gt;tup_HKP</title>
<path fill="none" stroke="black" d="M523.211,-372.403C596.898,-383.727 698.512,-399.342 771.639,-410.58"/>
<polygon fill="black" stroke="black" points="771.347,-414.076 781.763,-412.136 772.411,-407.158 771.347,-414.076"/>
</g>
<!-- GOAL_render -->
<g id="node15" class="node"><title>GOAL_render</title>
<ellipse fill="#33cc33" stroke="black" cx="865.323" cy="-151.824" rx="72.5877" ry="18"/>
<text text-anchor="middle" x="865.323" y="-148.124" font-family="Times,serif" font-size="14.00">P =&gt; [ TagMod ]</text>
</g>
<!-- renderNeeds&#45;&gt;render -->
<g id="edge22" class="edge"><title>renderNeeds&#45;&gt;render</title>
<path fill="none" stroke="black" d="M509.593,-143.44C570.291,-137.448 655.328,-129.626 730.135,-124.824 825.645,-118.692 935.642,-114.879 1008.4,-112.81"/>
<polygon fill="black" stroke="black" points="1008.51,-116.308 1018.41,-112.529 1008.32,-109.311 1008.51,-116.308"/>
</g>
<!-- renderNeeds&#45;&gt;GOAL_render -->
<g id="edge14" class="edge"><title>renderNeeds&#45;&gt;GOAL_render</title>
<path fill="none" stroke="red" d="M513.696,-151.824C591.514,-151.824 705.708,-151.824 782.424,-151.824"/>
<polygon fill="red" stroke="red" points="782.524,-155.324 792.524,-151.824 782.524,-148.324 782.524,-155.324"/>
</g>
<!-- tup_PK&#45;&gt;Param -->
<g id="edge15" class="edge"><title>tup_PK&#45;&gt;Param</title>
<path fill="none" stroke="black" d="M679.61,-55.5445C817.232,-19.0431 1210.54,64.2481 1472.09,-91.8235 1516.88,-118.553 1540.87,-177.953 1551.62,-213.147"/>
<polygon fill="black" stroke="black" points="1548.27,-214.179 1554.42,-222.807 1554.99,-212.228 1548.27,-214.179"/>
</g>
<!-- tup_HKP&#45;&gt;header -->
<g id="edge19" class="edge"><title>tup_HKP&#45;&gt;header</title>
<path fill="none" stroke="black" d="M941.504,-405.798C1039.71,-380.947 1208.13,-338.328 1284.71,-318.948"/>
<polygon fill="black" stroke="black" points="1285.62,-322.328 1294.46,-316.482 1283.9,-315.542 1285.62,-322.328"/>
</g>
<!-- tup_HKP&#45;&gt;prism -->
<g id="edge21" class="edge"><title>tup_HKP&#45;&gt;prism</title>
<path fill="none" stroke="black" d="M942.361,-443.428C1005.64,-458.699 1098.16,-480.545 1179.35,-497.824 1203.21,-502.903 1229.37,-508.066 1252.84,-512.552"/>
<polygon fill="black" stroke="black" points="1252.24,-516 1262.71,-514.43 1253.55,-509.123 1252.24,-516"/>
</g>
<!-- parseOne -->
<g id="node19" class="node"><title>parseOne</title>
<ellipse fill="none" stroke="black" cx="1325.72" cy="-398.824" rx="123.478" ry="18"/>
<text text-anchor="middle" x="1325.72" y="-395.124" font-family="Times,serif" font-size="14.00">GenState =&gt; Header | Vector A</text>
</g>
<!-- tup_HKP&#45;&gt;parseOne -->
<g id="edge18" class="edge"><title>tup_HKP&#45;&gt;parseOne</title>
<path fill="none" stroke="black" d="M952.407,-417.538C973.981,-415.849 997.084,-414.158 1018.51,-412.824 1076.76,-409.196 1141.3,-406.107 1196.05,-403.761"/>
<polygon fill="black" stroke="black" points="1196.32,-407.253 1206.16,-403.332 1196.02,-400.26 1196.32,-407.253"/>
</g>
<!-- tup_HKP&#45;&gt;key -->
<g id="edge20" class="edge"><title>tup_HKP&#45;&gt;key</title>
<path fill="none" stroke="black" d="M953.595,-427.358C1012.39,-429.533 1091.64,-433.369 1161.35,-439.824 1188.64,-442.35 1218.37,-446.065 1244.9,-449.726"/>
<polygon fill="black" stroke="black" points="1244.51,-453.206 1254.9,-451.124 1245.48,-446.273 1244.51,-453.206"/>
</g>
<!-- tup_initValuesPrism&#45;&gt;initValues -->
<g id="edge24" class="edge"><title>tup_initValuesPrism&#45;&gt;initValues</title>
<path fill="none" stroke="black" d="M947.115,-729.25C970.132,-733.046 995.266,-736.894 1018.51,-739.824 1099.51,-750.033 1193.05,-757.683 1255.22,-762.186"/>
<polygon fill="black" stroke="black" points="1255.08,-765.684 1265.3,-762.908 1255.58,-758.702 1255.08,-765.684"/>
</g>
<!-- tup_initValuesPrism&#45;&gt;prism -->
<g id="edge25" class="edge"><title>tup_initValuesPrism&#45;&gt;prism</title>
<path fill="none" stroke="black" d="M933.193,-699.189C954.899,-693.504 978.939,-686.553 1000.51,-678.824 1074.41,-652.342 1096.18,-649.593 1161.35,-605.824 1170.48,-599.688 1170.16,-594.88 1179.35,-588.824 1207.39,-570.337 1241.75,-555.153 1270.03,-544.327"/>
<polygon fill="black" stroke="black" points="1271.62,-547.468 1279.75,-540.681 1269.16,-540.913 1271.62,-547.468"/>
</g>
<!-- sb -->
<g id="node22" class="node"><title>sb</title>
<ellipse fill="none" stroke="black" cx="1325.72" cy="-615.824" rx="36.2938" ry="18"/>
<text text-anchor="middle" x="1325.72" y="-612.124" font-family="Times,serif" font-size="14.00">State B</text>
</g>
<!-- tup_initValuesPrism&#45;&gt;sb -->
<g id="edge23" class="edge"><title>tup_initValuesPrism&#45;&gt;sb</title>
<path fill="none" stroke="black" d="M927.546,-730.868C991.887,-743.909 1093.05,-753.152 1161.35,-704.824 1179.27,-692.142 1163.17,-673.671 1179.35,-658.824 1206.52,-633.877 1247.51,-623.357 1279.05,-618.945"/>
<polygon fill="black" stroke="black" points="1279.85,-622.372 1289.35,-617.671 1278.99,-615.425 1279.85,-622.372"/>
</g>
<!-- tup_keyGS -->
<g id="node23" class="node"><title>tup_keyGS</title>
<ellipse fill="none" stroke="black" cx="865.323" cy="-579.824" rx="75.2868" ry="18"/>
<text text-anchor="middle" x="865.323" y="-576.124" font-family="Times,serif" font-size="14.00">Key B * GenState</text>
</g>
<!-- tup_keyGS&#45;&gt;gs -->
<g id="edge27" class="edge"><title>tup_keyGS&#45;&gt;gs</title>
<path fill="none" stroke="black" d="M920.254,-592.295C1010.88,-613.252 1192.19,-655.179 1277.85,-674.985"/>
<polygon fill="black" stroke="black" points="1277.27,-678.445 1287.81,-677.288 1278.85,-671.625 1277.27,-678.445"/>
</g>
<!-- tup_keyGS&#45;&gt;key -->
<g id="edge28" class="edge"><title>tup_keyGS&#45;&gt;key</title>
<path fill="none" stroke="black" d="M915.615,-566.319C945.379,-558.221 984.086,-547.788 1018.51,-538.824 1098.28,-518.05 1189.99,-495.113 1252.09,-479.721"/>
<polygon fill="black" stroke="black" points="1253.32,-483.024 1262.18,-477.223 1251.63,-476.229 1253.32,-483.024"/>
</g>
<!-- tup_keyGS&#45;&gt;sb -->
<g id="edge26" class="edge"><title>tup_keyGS&#45;&gt;sb</title>
<path fill="none" stroke="black" d="M940.779,-578.471C1000.55,-578.136 1086.53,-579.34 1161.35,-586.824 1202.73,-590.963 1249.4,-599.657 1282.23,-606.452"/>
<polygon fill="black" stroke="black" points="1281.87,-609.953 1292.37,-608.583 1283.31,-603.103 1281.87,-609.953"/>
<text text-anchor="middle" x="1089.93" y="-590.624" font-family="Times,serif" font-size="14.00">get</text>
</g>
<!-- tup_keyGSB&#45;&gt;gs -->
<g id="edge29" class="edge"><title>tup_keyGSB&#45;&gt;gs</title>
<path fill="none" stroke="black" d="M930.498,-664.316C957.557,-669.075 989.46,-674.023 1018.51,-676.824 1107.46,-685.398 1211.56,-686.594 1272.6,-686.403"/>
<polygon fill="black" stroke="black" points="1272.77,-689.903 1282.75,-686.357 1272.74,-682.903 1272.77,-689.903"/>
<text text-anchor="middle" x="1089.93" y="-689.624" font-family="Times,serif" font-size="14.00">set</text>
</g>
<!-- tup_keyGSB&#45;&gt;key -->
<g id="edge30" class="edge"><title>tup_keyGSB&#45;&gt;key</title>
<path fill="none" stroke="black" d="M932.492,-639.759C955.84,-633.025 981.088,-622.664 1000.51,-606.824 1012.86,-596.754 1005.95,-585.618 1018.51,-575.824 1070.6,-535.219 1110.55,-577.034 1161.35,-534.824 1175.1,-523.391 1165.42,-510.046 1179.35,-498.824 1196.84,-484.726 1219.06,-475.928 1240.83,-470.459"/>
<polygon fill="black" stroke="black" points="1241.82,-473.823 1250.78,-468.173 1240.25,-467.001 1241.82,-473.823"/>
</g>
<!-- tup_keyGSB&#45;&gt;sb -->
<g id="edge31" class="edge"><title>tup_keyGSB&#45;&gt;sb</title>
<path fill="none" stroke="black" d="M949.6,-645.283C1046.36,-637.684 1202.52,-625.42 1279.23,-619.396"/>
<polygon fill="black" stroke="black" points="1279.81,-622.861 1289.51,-618.589 1279.27,-615.882 1279.81,-622.861"/>
</g>
<!-- tup_keyGSB&#45;&gt;tup_keyGS -->
<g id="edge32" class="edge"><title>tup_keyGSB&#45;&gt;tup_keyGS</title>
<path fill="none" stroke="black" d="M865.323,-633.683C865.323,-625.092 865.323,-616.5 865.323,-607.909"/>
<polygon fill="black" stroke="black" points="868.822,-607.824 865.323,-597.824 861.822,-607.823 868.822,-607.824"/>
</g>
<!-- tup_keyEd&#45;&gt;editor -->
<g id="edge43" class="edge"><title>tup_keyEd&#45;&gt;editor</title>
<path fill="none" stroke="black" d="M936.192,-200.946C1001.99,-196.352 1102.48,-189.338 1184.77,-183.593"/>
<polygon fill="black" stroke="black" points="1185.23,-187.069 1194.97,-182.881 1184.75,-180.086 1185.23,-187.069"/>
</g>
<!-- tup_keyEd&#45;&gt;genEditor -->
<g id="edge44" class="edge"><title>tup_keyEd&#45;&gt;genEditor</title>
<path fill="none" stroke="black" d="M934.949,-211.812C1000.35,-217.519 1100.8,-226.285 1183.35,-233.488"/>
<polygon fill="black" stroke="black" points="1183.06,-236.975 1193.32,-234.358 1183.67,-230.002 1183.06,-236.975"/>
</g>
<!-- tup_keyEd&#45;&gt;key -->
<g id="edge42" class="edge"><title>tup_keyEd&#45;&gt;key</title>
<path fill="none" stroke="black" d="M935.423,-211.328C957.264,-215.218 980.819,-221.783 1000.51,-232.824 1102.51,-290.015 1078.63,-366.392 1179.35,-425.824 1198.67,-437.225 1221.48,-445.031 1243.23,-450.369"/>
<polygon fill="black" stroke="black" points="1242.61,-453.816 1253.14,-452.652 1244.18,-446.995 1242.61,-453.816"/>
</g>
</g>
</svg>
