<?xml version="1.0" encoding="UTF-8" standalone="no"?>
<!DOCTYPE svg PUBLIC "-//W3C//DTD SVG 1.1//EN"
 "http://www.w3.org/Graphics/SVG/1.1/DTD/svg11.dtd">
<!-- Generated by graphviz version 2.38.0 (20140413.2041)
 -->
<!-- Title: G Pages: 1 -->
<svg width="1153pt" height="849pt"
 viewBox="0.00 0.00 1152.52 848.74" xmlns="http://www.w3.org/2000/svg" xmlns:xlink="http://www.w3.org/1999/xlink">
<g id="graph0" class="graph" transform="scale(1 1) rotate(0) translate(4 844.74)">
<title>G</title>
<polygon fill="white" stroke="none" points="-4,4 -4,-844.74 1148.52,-844.74 1148.52,4 -4,4"/>
<!-- header -->
<g id="node1" class="node"><title>header</title>
<ellipse fill="#e6e6ff" stroke="black" cx="876.659" cy="-216.87" rx="34.394" ry="18"/>
<text text-anchor="middle" x="876.659" y="-213.17" font-family="Times,serif" font-size="14.00">header</text>
</g>
<!-- Param -->
<g id="node6" class="node"><title>Param</title>
<ellipse fill="#e6e6ff" stroke="black" cx="1102.28" cy="-486.87" rx="42.4939" ry="18"/>
<text text-anchor="middle" x="1102.28" y="-483.17" font-family="Times,serif" font-size="14.00">Param A</text>
</g>
<!-- header&#45;&gt;Param -->
<g id="edge1" class="edge"><title>header&#45;&gt;Param</title>
<path fill="none" stroke="black" d="M921.315,-213.835C953.161,-214.018 995.41,-219.574 1023.03,-243.87 1091.08,-303.733 1100.34,-423.02 1101.31,-468.592"/>
<polygon fill="black" stroke="black" points="920.907,-210.34 910.95,-213.96 920.992,-217.339 920.907,-210.34"/>
</g>
<!-- render -->
<g id="node2" class="node"><title>render</title>
<ellipse fill="#e6e6ff" stroke="black" cx="876.659" cy="-813.87" rx="71.3357" ry="26.7407"/>
<text text-anchor="middle" x="876.659" y="-817.67" font-family="Times,serif" font-size="14.00">RenderValue A</text>
<text text-anchor="middle" x="876.659" y="-802.67" font-family="Times,serif" font-size="14.00">A =&gt; TagMod</text>
</g>
<!-- render&#45;&gt;Param -->
<g id="edge2" class="edge"><title>render&#45;&gt;Param</title>
<path fill="none" stroke="black" d="M957.94,-809.36C981.534,-804.302 1005.65,-794.911 1023.03,-777.87 1062.91,-738.776 1090.69,-562.49 1098.82,-505.036"/>
<polygon fill="black" stroke="black" points="957.051,-805.966 947.881,-811.272 958.359,-812.843 957.051,-805.966"/>
</g>
<!-- initValues -->
<g id="node3" class="node"><title>initValues</title>
<ellipse fill="#e6e6ff" stroke="black" cx="876.659" cy="-741.87" rx="60.623" ry="26.7407"/>
<text text-anchor="middle" x="876.659" y="-745.67" font-family="Times,serif" font-size="14.00">initValues A</text>
<text text-anchor="middle" x="876.659" y="-730.67" font-family="Times,serif" font-size="14.00">Vector A</text>
</g>
<!-- initValues&#45;&gt;Param -->
<g id="edge3" class="edge"><title>initValues&#45;&gt;Param</title>
<path fill="none" stroke="black" d="M947.543,-738.368C973.933,-733.777 1002.51,-724.427 1023.03,-705.87 1083.37,-651.302 1097.2,-546.957 1100.35,-505.001"/>
<polygon fill="black" stroke="black" points="946.908,-734.924 937.557,-739.903 947.972,-741.843 946.908,-734.924"/>
</g>
<!-- editor -->
<g id="node4" class="node"><title>editor</title>
<ellipse fill="#e6e6ff" stroke="black" cx="876.659" cy="-351.87" rx="138.686" ry="26.7407"/>
<text text-anchor="middle" x="876.659" y="-355.67" font-family="Times,serif" font-size="14.00">Editor B</text>
<text text-anchor="middle" x="876.659" y="-340.67" font-family="Times,serif" font-size="14.00">ExternalVar B =&gt; ReactElement</text>
</g>
<!-- editor&#45;&gt;Param -->
<g id="edge4" class="edge"><title>editor&#45;&gt;Param</title>
<path fill="none" stroke="black" d="M992.64,-372.61C1003.32,-376.795 1013.65,-381.825 1023.03,-387.87 1055.07,-408.516 1079.71,-446.832 1092.2,-469.26"/>
<polygon fill="black" stroke="black" points="993.766,-369.295 983.172,-369.145 991.36,-375.869 993.766,-369.295"/>
</g>
<!-- prism -->
<g id="node5" class="node"><title>prism</title>
<ellipse fill="#e6e6ff" stroke="black" cx="876.659" cy="-486.87" rx="81.4863" ry="18"/>
<text text-anchor="middle" x="876.659" y="-483.17" font-family="Times,serif" font-size="14.00">Prism B (Vector A)</text>
</g>
<!-- prism&#45;&gt;Param -->
<g id="edge5" class="edge"><title>prism&#45;&gt;Param</title>
<path fill="none" stroke="black" d="M968.272,-486.87C999.979,-486.87 1034.05,-486.87 1059.77,-486.87"/>
<polygon fill="black" stroke="black" points="968.074,-483.37 958.074,-486.87 968.074,-490.37 968.074,-483.37"/>
</g>
<!-- genEditor -->
<g id="node7" class="node"><title>genEditor</title>
<ellipse fill="none" stroke="black" cx="876.659" cy="-279.87" rx="146.242" ry="26.7407"/>
<text text-anchor="middle" x="876.659" y="-283.67" font-family="Times,serif" font-size="14.00">GenEditor</text>
<text text-anchor="middle" x="876.659" y="-268.67" font-family="Times,serif" font-size="14.00">ExternalVar GenState =&gt; TagMod</text>
</g>
<!-- gs -->
<g id="node8" class="node"><title>gs</title>
<ellipse fill="#33cc33" stroke="black" cx="876.659" cy="-540.87" rx="42.7926" ry="18"/>
<text text-anchor="middle" x="876.659" y="-537.17" font-family="Times,serif" font-size="14.00">GenState</text>
</g>
<!-- gs&#45;&gt;gs -->
<g id="edge6" class="edge"><title>gs&#45;&gt;gs</title>
<path fill="none" stroke="black" d="M849.542,-555.287C840.073,-566.036 849.112,-576.87 876.659,-576.87 895.597,-576.87 905.788,-571.749 907.23,-565.056"/>
<polygon fill="black" stroke="black" points="910.409,-563.547 903.775,-555.287 903.81,-565.882 910.409,-563.547"/>
</g>
<!-- GOAL_Params -->
<g id="node9" class="node"><title>GOAL_Params</title>
<ellipse fill="#33cc33" stroke="black" cx="37.0467" cy="-353.87" rx="37.0935" ry="18"/>
<text text-anchor="middle" x="37.0467" y="-350.17" font-family="Times,serif" font-size="14.00">Params</text>
</g>
<!-- initStateNeeds -->
<g id="node11" class="node"><title>initStateNeeds</title>
<ellipse fill="#33cc33" stroke="black" cx="269.503" cy="-488.87" rx="100.318" ry="37.4533"/>
<text text-anchor="middle" x="269.503" y="-500.17" font-family="Times,serif" font-size="14.00">[ Key Bₙ *</text>
<text text-anchor="middle" x="269.503" y="-485.17" font-family="Times,serif" font-size="14.00">initValues Aₙ *</text>
<text text-anchor="middle" x="269.503" y="-470.17" font-family="Times,serif" font-size="14.00">Prism Bₙ (Vector Aₙ) ]</text>
</g>
<!-- GOAL_Params&#45;&gt;initStateNeeds -->
<g id="edge7" class="edge"><title>GOAL_Params&#45;&gt;initStateNeeds</title>
<path fill="none" stroke="red" d="M58.2195,-368.847C68.2298,-376.073 80.6099,-384.706 92.0934,-391.87 127.06,-413.683 167.241,-435.981 200.415,-453.689"/>
<polygon fill="red" stroke="red" points="199.102,-456.956 209.575,-458.558 202.388,-450.774 199.102,-456.956"/>
<text text-anchor="middle" x="121.593" y="-429.67" font-family="Times,serif" font-size="14.00" fill="red">initialState</text>
</g>
<!-- editorNeeds -->
<g id="node12" class="node"><title>editorNeeds</title>
<ellipse fill="#33cc33" stroke="black" cx="269.503" cy="-312.87" rx="55.7232" ry="37.4533"/>
<text text-anchor="middle" x="269.503" y="-324.17" font-family="Times,serif" font-size="14.00">[ Headerₙ *</text>
<text text-anchor="middle" x="269.503" y="-309.17" font-family="Times,serif" font-size="14.00">Key Bₙ *</text>
<text text-anchor="middle" x="269.503" y="-294.17" font-family="Times,serif" font-size="14.00">Editor Bₙ ]</text>
</g>
<!-- GOAL_Params&#45;&gt;editorNeeds -->
<g id="edge9" class="edge"><title>GOAL_Params&#45;&gt;editorNeeds</title>
<path fill="none" stroke="red" d="M72.0513,-347.82C106.941,-341.613 162.045,-331.81 205.025,-324.163"/>
<polygon fill="red" stroke="red" points="205.879,-327.566 215.111,-322.369 204.653,-320.675 205.879,-327.566"/>
<text text-anchor="middle" x="121.593" y="-348.67" font-family="Times,serif" font-size="14.00" fill="red">editor</text>
</g>
<!-- parseNeeds -->
<g id="node13" class="node"><title>parseNeeds</title>
<ellipse fill="#33cc33" stroke="black" cx="269.503" cy="-126.87" rx="100.318" ry="48.1667"/>
<text text-anchor="middle" x="269.503" y="-145.67" font-family="Times,serif" font-size="14.00">apply *</text>
<text text-anchor="middle" x="269.503" y="-130.67" font-family="Times,serif" font-size="14.00">[ Headerₙ *</text>
<text text-anchor="middle" x="269.503" y="-115.67" font-family="Times,serif" font-size="14.00">Key Bₙ *</text>
<text text-anchor="middle" x="269.503" y="-100.67" font-family="Times,serif" font-size="14.00">Prism Bₙ (Vector Aₙ) ]</text>
</g>
<!-- GOAL_Params&#45;&gt;parseNeeds -->
<g id="edge11" class="edge"><title>GOAL_Params&#45;&gt;parseNeeds</title>
<path fill="none" stroke="red" d="M54.2519,-337.908C87.6194,-305.041 165.227,-228.597 217.291,-177.313"/>
<polygon fill="red" stroke="red" points="219.793,-179.762 224.461,-170.251 214.881,-174.775 219.793,-179.762"/>
<text text-anchor="middle" x="121.593" y="-303.67" font-family="Times,serif" font-size="14.00" fill="red">parse</text>
</g>
<!-- PKeys -->
<g id="node19" class="node"><title>PKeys</title>
<ellipse fill="none" stroke="black" cx="542.1" cy="-381.87" rx="42.4939" ry="18"/>
<text text-anchor="middle" x="542.1" y="-378.17" font-family="Times,serif" font-size="14.00">[Key Bₙ]</text>
</g>
<!-- GOAL_Params&#45;&gt;PKeys -->
<g id="edge19" class="edge"><title>GOAL_Params&#45;&gt;PKeys</title>
<path fill="none" stroke="black" d="M71.3791,-360.808C78.2049,-362.011 85.3604,-363.116 92.0934,-363.87 235.404,-379.917 405.851,-382.175 489.532,-382.191"/>
<polygon fill="black" stroke="black" points="489.787,-385.69 499.784,-382.181 489.78,-378.69 489.787,-385.69"/>
</g>
<!-- GOAL_editors -->
<g id="node10" class="node"><title>GOAL_editors</title>
<ellipse fill="#33cc33" stroke="black" cx="542.1" cy="-273.87" rx="98.5829" ry="18"/>
<text text-anchor="middle" x="542.1" y="-270.17" font-family="Times,serif" font-size="14.00">[ Headerₙ * GenEditorₙ ]</text>
</g>
<!-- GOAL_editors&#45;&gt;header -->
<g id="edge39" class="edge"><title>GOAL_editors&#45;&gt;header</title>
<path fill="none" stroke="black" d="M614.851,-261.572C681.581,-250.135 778.726,-233.484 833.676,-224.066"/>
<polygon fill="black" stroke="black" points="834.49,-227.477 843.755,-222.338 833.308,-220.578 834.49,-227.477"/>
</g>
<!-- GOAL_editors&#45;&gt;genEditor -->
<g id="edge40" class="edge"><title>GOAL_editors&#45;&gt;genEditor</title>
<path fill="none" stroke="black" d="M640.631,-275.63C665.809,-276.084 693.539,-276.584 720.854,-277.077"/>
<polygon fill="black" stroke="black" points="720.831,-280.577 730.893,-277.258 720.958,-273.578 720.831,-280.577"/>
</g>
<!-- initStateNeeds&#45;&gt;initValues -->
<g id="edge32" class="edge"><title>initStateNeeds&#45;&gt;initValues</title>
<path fill="none" stroke="black" d="M279.24,-526.521C294.454,-582.444 331.647,-685.704 406.912,-730.87 534.867,-807.655 719.936,-780.11 814.706,-758.281"/>
<polygon fill="black" stroke="black" points="815.77,-761.626 824.699,-755.923 814.162,-754.813 815.77,-761.626"/>
</g>
<!-- initStateNeeds&#45;&gt;prism -->
<g id="edge31" class="edge"><title>initStateNeeds&#45;&gt;prism</title>
<path fill="none" stroke="black" d="M370.093,-488.541C485.431,-488.16 673.801,-487.537 785.137,-487.169"/>
<polygon fill="black" stroke="black" points="785.346,-490.669 795.334,-487.136 785.323,-483.669 785.346,-490.669"/>
</g>
<!-- initStateNeeds&#45;&gt;gs -->
<g id="edge8" class="edge"><title>initStateNeeds&#45;&gt;gs</title>
<path fill="none" stroke="red" d="M366.922,-498.014C374.024,-498.653 381.079,-499.278 387.912,-499.87 516.448,-510.999 548.735,-511.929 677.288,-522.87 727.369,-527.132 784.528,-532.357 824.583,-536.077"/>
<polygon fill="red" stroke="red" points="824.358,-539.571 834.639,-537.013 825.006,-532.602 824.358,-539.571"/>
<text text-anchor="middle" x="542.1" y="-526.67" font-family="Times,serif" font-size="14.00" fill="red">fold</text>
</g>
<!-- key -->
<g id="node18" class="node"><title>key</title>
<ellipse fill="none" stroke="black" cx="876.659" cy="-423.87" rx="77.1494" ry="26.7407"/>
<text text-anchor="middle" x="876.659" y="-427.67" font-family="Times,serif" font-size="14.00">Key B</text>
<text text-anchor="middle" x="876.659" y="-412.67" font-family="Times,serif" font-size="14.00">Lens GenState B</text>
</g>
<!-- initStateNeeds&#45;&gt;key -->
<g id="edge30" class="edge"><title>initStateNeeds&#45;&gt;key</title>
<path fill="none" stroke="black" d="M366.391,-478.571C483.87,-465.952 680.975,-444.781 792.382,-432.815"/>
<polygon fill="black" stroke="black" points="792.992,-436.27 802.561,-431.722 792.244,-429.31 792.992,-436.27"/>
</g>
<!-- initStateNeeds&#45;&gt;PKeys -->
<g id="edge33" class="edge"><title>initStateNeeds&#45;&gt;PKeys</title>
<path fill="none" stroke="black" d="M316.62,-455.758C337.543,-442.032 363.116,-426.986 387.912,-416.87 421.272,-403.26 460.982,-394.378 491.612,-388.967"/>
<polygon fill="black" stroke="black" points="492.357,-392.391 501.629,-387.263 491.184,-385.49 492.357,-392.391"/>
</g>
<!-- tup_initValuesPrism -->
<g id="node20" class="node"><title>tup_initValuesPrism</title>
<ellipse fill="none" stroke="black" cx="542.1" cy="-703.87" rx="135.376" ry="18"/>
<text text-anchor="middle" x="542.1" y="-700.17" font-family="Times,serif" font-size="14.00">initValues A * Prism B (Vector A)</text>
</g>
<!-- initStateNeeds&#45;&gt;tup_initValuesPrism -->
<g id="edge35" class="edge"><title>initStateNeeds&#45;&gt;tup_initValuesPrism</title>
<path fill="none" stroke="black" d="M290.061,-525.899C312.929,-565.687 354.424,-628.023 406.912,-663.87 420.627,-673.237 436.579,-680.453 452.597,-685.999"/>
<polygon fill="black" stroke="black" points="451.967,-689.475 462.559,-689.241 454.133,-682.819 451.967,-689.475"/>
</g>
<!-- tup_keyGSB -->
<g id="node23" class="node"><title>tup_keyGSB</title>
<ellipse fill="none" stroke="black" cx="542.1" cy="-636.87" rx="90.1842" ry="18"/>
<text text-anchor="middle" x="542.1" y="-633.17" font-family="Times,serif" font-size="14.00">Key B * GenState * B</text>
</g>
<!-- initStateNeeds&#45;&gt;tup_keyGSB -->
<g id="edge34" class="edge"><title>initStateNeeds&#45;&gt;tup_keyGSB</title>
<path fill="none" stroke="black" d="M309.077,-523.385C335.211,-545.361 371.342,-573.118 406.912,-591.87 428.497,-603.249 453.527,-612.572 476.083,-619.72"/>
<polygon fill="black" stroke="black" points="475.327,-623.15 485.914,-622.751 477.389,-616.461 475.327,-623.15"/>
</g>
<!-- editorNeeds&#45;&gt;header -->
<g id="edge36" class="edge"><title>editorNeeds&#45;&gt;header</title>
<path fill="none" stroke="black" d="M311.278,-287.969C337.576,-273.24 373.073,-255.773 406.912,-246.87 559.113,-206.825 748.24,-210.109 832.114,-214.15"/>
<polygon fill="black" stroke="black" points="832.122,-217.655 842.287,-214.67 832.479,-210.664 832.122,-217.655"/>
</g>
<!-- editorNeeds&#45;&gt;GOAL_editors -->
<g id="edge10" class="edge"><title>editorNeeds&#45;&gt;GOAL_editors</title>
<path fill="none" stroke="red" d="M324.287,-305.118C361.316,-299.782 411.33,-292.573 453.991,-286.425"/>
<polygon fill="red" stroke="red" points="454.701,-289.859 464.099,-284.968 453.702,-282.93 454.701,-289.859"/>
</g>
<!-- editorNeeds&#45;&gt;PKeys -->
<g id="edge38" class="edge"><title>editorNeeds&#45;&gt;PKeys</title>
<path fill="none" stroke="black" d="M319.733,-329.333C345.522,-337.625 377.731,-347.462 406.912,-354.87 435.175,-362.046 467.175,-368.546 492.835,-373.369"/>
<polygon fill="black" stroke="black" points="492.224,-376.816 502.695,-375.199 493.502,-369.933 492.224,-376.816"/>
</g>
<!-- tup_keyEd -->
<g id="node24" class="node"><title>tup_keyEd</title>
<ellipse fill="none" stroke="black" cx="542.1" cy="-327.87" rx="73.387" ry="18"/>
<text text-anchor="middle" x="542.1" y="-324.17" font-family="Times,serif" font-size="14.00">Key B * Editor B</text>
</g>
<!-- editorNeeds&#45;&gt;tup_keyEd -->
<g id="edge37" class="edge"><title>editorNeeds&#45;&gt;tup_keyEd</title>
<path fill="none" stroke="black" d="M325.262,-315.906C364.017,-318.054 416.634,-320.971 460.213,-323.386"/>
<polygon fill="black" stroke="black" points="460.043,-326.882 470.222,-323.941 460.431,-319.893 460.043,-326.882"/>
</g>
<!-- GOAL_parse -->
<g id="node14" class="node"><title>GOAL_parse</title>
<ellipse fill="#33cc33" stroke="black" cx="542.1" cy="-89.8701" rx="122.379" ry="18"/>
<text text-anchor="middle" x="542.1" y="-86.1701" font-family="Times,serif" font-size="14.00">GenState =&gt; Header | Vector P</text>
</g>
<!-- parseNeeds&#45;&gt;GOAL_parse -->
<g id="edge13" class="edge"><title>parseNeeds&#45;&gt;GOAL_parse</title>
<path fill="none" stroke="red" d="M366.286,-113.773C390.739,-110.43 417.08,-106.828 441.71,-103.46"/>
<polygon fill="red" stroke="red" points="442.35,-106.905 451.784,-102.083 441.402,-99.9698 442.35,-106.905"/>
</g>
<!-- apply -->
<g id="node15" class="node"><title>apply</title>
<ellipse fill="#33cc33" stroke="black" cx="542.1" cy="-26.8701" rx="75.8212" ry="26.7407"/>
<text text-anchor="middle" x="542.1" y="-30.6701" font-family="Times,serif" font-size="14.00">apply</text>
<text text-anchor="middle" x="542.1" y="-15.6701" font-family="Times,serif" font-size="14.00">(A₁,…,Aₙ) =&gt; P</text>
</g>
<!-- parseNeeds&#45;&gt;apply -->
<g id="edge12" class="edge"><title>parseNeeds&#45;&gt;apply</title>
<path fill="none" stroke="red" d="M338.892,-91.8973C360.333,-81.7205 384.308,-71.1314 406.912,-62.8701 426.478,-55.719 448.115,-49.2956 468.199,-43.9227"/>
<polygon fill="red" stroke="red" points="469.135,-47.2959 477.918,-41.371 467.357,-40.5253 469.135,-47.2959"/>
</g>
<!-- tup_HKP -->
<g id="node16" class="node"><title>tup_HKP</title>
<ellipse fill="none" stroke="black" cx="542.1" cy="-162.87" rx="88.2768" ry="37.4533"/>
<text text-anchor="middle" x="542.1" y="-174.17" font-family="Times,serif" font-size="14.00">Header *</text>
<text text-anchor="middle" x="542.1" y="-159.17" font-family="Times,serif" font-size="14.00">Key B *</text>
<text text-anchor="middle" x="542.1" y="-144.17" font-family="Times,serif" font-size="14.00">Prism B (Vector A)</text>
</g>
<!-- parseNeeds&#45;&gt;tup_HKP -->
<g id="edge14" class="edge"><title>parseNeeds&#45;&gt;tup_HKP</title>
<path fill="none" stroke="black" d="M366.667,-139.664C392.818,-143.143 421.103,-146.906 447.131,-150.368"/>
<polygon fill="black" stroke="black" points="446.992,-153.881 457.366,-151.73 447.915,-146.942 446.992,-153.881"/>
</g>
<!-- tup_HKP&#45;&gt;header -->
<g id="edge16" class="edge"><title>tup_HKP&#45;&gt;header</title>
<path fill="none" stroke="black" d="M624.879,-176.149C690.868,-186.864 781.041,-201.506 833.346,-209.999"/>
<polygon fill="black" stroke="black" points="832.852,-213.465 843.284,-211.613 833.974,-206.555 832.852,-213.465"/>
</g>
<!-- tup_HKP&#45;&gt;prism -->
<g id="edge18" class="edge"><title>tup_HKP&#45;&gt;prism</title>
<path fill="none" stroke="black" d="M606.474,-188.827C632.201,-202.448 659.899,-221.636 677.288,-246.87 700.682,-280.818 685.595,-297.798 695.288,-337.87 708.55,-392.698 688.537,-421.937 730.288,-459.87 745.472,-473.666 765.344,-481.479 785.497,-485.701"/>
<polygon fill="black" stroke="black" points="784.93,-489.155 795.394,-487.496 786.178,-482.268 784.93,-489.155"/>
</g>
<!-- parseOne -->
<g id="node17" class="node"><title>parseOne</title>
<ellipse fill="none" stroke="black" cx="876.659" cy="-152.87" rx="123.478" ry="18"/>
<text text-anchor="middle" x="876.659" y="-149.17" font-family="Times,serif" font-size="14.00">GenState =&gt; Header | Vector A</text>
</g>
<!-- tup_HKP&#45;&gt;parseOne -->
<g id="edge15" class="edge"><title>tup_HKP&#45;&gt;parseOne</title>
<path fill="none" stroke="black" d="M630.476,-160.243C665.542,-159.188 706.704,-157.951 745.18,-156.794"/>
<polygon fill="black" stroke="black" points="745.535,-160.285 755.425,-156.485 745.324,-153.288 745.535,-160.285"/>
</g>
<!-- tup_HKP&#45;&gt;key -->
<g id="edge17" class="edge"><title>tup_HKP&#45;&gt;key</title>
<path fill="none" stroke="black" d="M603.869,-189.9C629.428,-203.815 657.713,-222.935 677.288,-246.87 698.479,-272.782 705.277,-365.622 730.288,-387.87 746.966,-402.706 768.807,-411.64 790.472,-416.962"/>
<polygon fill="black" stroke="black" points="789.875,-420.414 800.395,-419.161 791.389,-413.58 789.875,-420.414"/>
</g>
<!-- tup_initValuesPrism&#45;&gt;initValues -->
<g id="edge21" class="edge"><title>tup_initValuesPrism&#45;&gt;initValues</title>
<path fill="none" stroke="black" d="M645.139,-715.53C697.791,-721.546 760.599,-728.723 807.348,-734.064"/>
<polygon fill="black" stroke="black" points="807.036,-737.552 817.369,-735.21 807.831,-730.597 807.036,-737.552"/>
</g>
<!-- tup_initValuesPrism&#45;&gt;prism -->
<g id="edge22" class="edge"><title>tup_initValuesPrism&#45;&gt;prism</title>
<path fill="none" stroke="black" d="M638.092,-691.143C667.19,-682.123 695.839,-666.811 712.288,-640.87 742.816,-592.724 690.849,-555.035 730.288,-513.87 744.928,-498.588 765.216,-490.349 785.995,-486.202"/>
<polygon fill="black" stroke="black" points="786.608,-489.648 795.884,-484.527 785.44,-482.746 786.608,-489.648"/>
</g>
<!-- sb -->
<g id="node21" class="node"><title>sb</title>
<ellipse fill="none" stroke="black" cx="876.659" cy="-678.87" rx="36.2938" ry="18"/>
<text text-anchor="middle" x="876.659" y="-675.17" font-family="Times,serif" font-size="14.00">State B</text>
</g>
<!-- tup_initValuesPrism&#45;&gt;sb -->
<g id="edge20" class="edge"><title>tup_initValuesPrism&#45;&gt;sb</title>
<path fill="none" stroke="black" d="M677.54,-704.788C689.3,-704.35 701.012,-703.727 712.288,-702.87 753.17,-699.762 799.364,-692.636 832.174,-686.951"/>
<polygon fill="black" stroke="black" points="833.091,-690.344 842.333,-685.163 831.878,-683.45 833.091,-690.344"/>
</g>
<!-- tup_keyGS -->
<g id="node22" class="node"><title>tup_keyGS</title>
<ellipse fill="none" stroke="black" cx="542.1" cy="-564.87" rx="75.2868" ry="18"/>
<text text-anchor="middle" x="542.1" y="-561.17" font-family="Times,serif" font-size="14.00">Key B * GenState</text>
</g>
<!-- tup_keyGS&#45;&gt;gs -->
<g id="edge24" class="edge"><title>tup_keyGS&#45;&gt;gs</title>
<path fill="none" stroke="black" d="M614.442,-559.721C677.506,-555.17 767.97,-548.642 824.2,-544.584"/>
<polygon fill="black" stroke="black" points="824.565,-548.067 834.287,-543.856 824.061,-541.085 824.565,-548.067"/>
</g>
<!-- tup_keyGS&#45;&gt;key -->
<g id="edge25" class="edge"><title>tup_keyGS&#45;&gt;key</title>
<path fill="none" stroke="black" d="M612.073,-558.023C634.265,-553.403 658.064,-545.699 677.288,-532.87 710.638,-510.615 697.035,-482.269 730.288,-459.87 748.801,-447.399 771.246,-439.244 792.904,-433.913"/>
<polygon fill="black" stroke="black" points="793.813,-437.295 802.783,-431.656 792.255,-430.471 793.813,-437.295"/>
</g>
<!-- tup_keyGS&#45;&gt;sb -->
<g id="edge23" class="edge"><title>tup_keyGS&#45;&gt;sb</title>
<path fill="none" stroke="black" d="M586.957,-579.44C613.191,-588.19 647.176,-599.584 677.288,-609.87 732.796,-628.831 796.874,-651.208 836.833,-665.221"/>
<polygon fill="black" stroke="black" points="835.857,-668.588 846.452,-668.597 838.175,-661.983 835.857,-668.588"/>
<text text-anchor="middle" x="703.788" y="-625.67" font-family="Times,serif" font-size="14.00">get</text>
</g>
<!-- tup_keyGSB&#45;&gt;gs -->
<g id="edge26" class="edge"><title>tup_keyGSB&#45;&gt;gs</title>
<path fill="none" stroke="black" d="M594.333,-622.08C659.055,-603.397 769.387,-571.548 830.886,-553.795"/>
<polygon fill="black" stroke="black" points="832.05,-557.102 840.687,-550.965 830.108,-550.376 832.05,-557.102"/>
<text text-anchor="middle" x="703.788" y="-595.67" font-family="Times,serif" font-size="14.00">set</text>
</g>
<!-- tup_keyGSB&#45;&gt;key -->
<g id="edge27" class="edge"><title>tup_keyGSB&#45;&gt;key</title>
<path fill="none" stroke="black" d="M612.396,-625.428C635.251,-618.79 659.377,-608.331 677.288,-591.87 706.162,-565.333 697.975,-547.382 712.288,-510.87 721.06,-488.491 712.491,-476.027 730.288,-459.87 746.898,-444.79 768.826,-435.786 790.6,-430.475"/>
<polygon fill="black" stroke="black" points="791.557,-433.849 800.574,-428.286 790.056,-427.011 791.557,-433.849"/>
</g>
<!-- tup_keyGSB&#45;&gt;sb -->
<g id="edge28" class="edge"><title>tup_keyGSB&#45;&gt;sb</title>
<path fill="none" stroke="black" d="M618.979,-646.453C684.533,-654.732 777.021,-666.413 831.222,-673.258"/>
<polygon fill="black" stroke="black" points="830.848,-676.738 841.208,-674.519 831.725,-669.794 830.848,-676.738"/>
</g>
<!-- tup_keyGSB&#45;&gt;tup_keyGS -->
<g id="edge29" class="edge"><title>tup_keyGSB&#45;&gt;tup_keyGS</title>
<path fill="none" stroke="black" d="M542.1,-618.729C542.1,-610.138 542.1,-601.547 542.1,-592.956"/>
<polygon fill="black" stroke="black" points="545.6,-592.87 542.1,-582.87 538.6,-592.87 545.6,-592.87"/>
</g>
<!-- tup_keyEd&#45;&gt;editor -->
<g id="edge42" class="edge"><title>tup_keyEd&#45;&gt;editor</title>
<path fill="none" stroke="black" d="M612.815,-332.901C648.698,-335.491 693.761,-338.743 736.391,-341.819"/>
<polygon fill="black" stroke="black" points="736.365,-345.327 746.591,-342.556 736.869,-338.345 736.365,-345.327"/>
</g>
<!-- tup_keyEd&#45;&gt;genEditor -->
<g id="edge43" class="edge"><title>tup_keyEd&#45;&gt;genEditor</title>
<path fill="none" stroke="black" d="M605.652,-318.842C646.49,-312.947 701.226,-305.047 750.738,-297.901"/>
<polygon fill="black" stroke="black" points="751.493,-301.328 760.891,-296.435 750.493,-294.4 751.493,-301.328"/>
</g>
<!-- tup_keyEd&#45;&gt;key -->
<g id="edge41" class="edge"><title>tup_keyEd&#45;&gt;key</title>
<path fill="none" stroke="black" d="M607.591,-336.027C630.145,-340.129 655.31,-346.15 677.288,-354.87 703.08,-365.104 704.728,-377.069 730.288,-387.87 751.567,-396.863 775.587,-403.95 797.882,-409.371"/>
<polygon fill="black" stroke="black" points="797.116,-412.786 807.652,-411.669 798.719,-405.972 797.116,-412.786"/>
</g>
</g>
</svg>
